<svg width="103" height="25" viewBox="0 0 103 25" fill="none" xmlns="http://www.w3.org/2000/svg">
<path d="M5.42191 13C4.59769 11.7523 2.18159 9.40517 3.28238 7.95184C4.12717 6.83649 6.08805 6.27471 7.67504 5.70205C9.01439 5.21875 10.448 4.88362 11.8973 4.56791C13.2142 4.28102 14.5393 4.02776 15.7882 3.62484C16.7581 3.31196 17.6137 2.92364 18.6567 2.70644C22.0386 2.00218 26.1178 2.01609 29.6573 2.01609C30.2506 2.01609 30.8438 2.01609 31.4371 2.01609C31.7397 2.01609 32.2709 1.93769 31.8347 2.12704" stroke="black" stroke-width="3" stroke-linecap="round"/>
<path d="M18 4C18 6.16122 17.2245 8.34141 16.605 10.4574C15.9762 12.6047 15.1487 14.7856 13.5212 16.7205C12.1979 18.2936 10.4464 20.3893 7.50046 20.8153C6.01886 21.0296 4.42759 20.9685 2.92067 20.9685C2.72136 20.9685 1.61419 21.0877 2.14055 20.8624" stroke="black" stroke-width="3" stroke-linecap="round"/>
<path d="M17 11.9971C19.7237 11.9971 22.6801 12.0815 25.1845 11.3443C28.0351 10.5052 30.336 8.67645 31.1667 6.88109C31.7579 5.60327 31.4614 4.27705 32 3" stroke="black" stroke-width="3" stroke-linecap="round"/>
<path d="M25.1198 15.1777L22.3815 22.4788" stroke="black" stroke-width="3" stroke-linecap="round"/>
<path d="M21.3073 15.4626C23.7142 15.2828 26.1179 15.1573 28.6067 14.7024" stroke="black" stroke-width="3" stroke-linecap="round"/>
<path d="M18.3457 23.3591C20.7526 23.1793 23.1562 23.0538 25.645 22.5989" stroke="black" stroke-width="3" stroke-linecap="round"/>
<path d="M32.3325 15C34.5543 16.5443 36.1519 18.3743 38.2823 19.96C39.2607 20.6882 40.3804 21.3658 41.4309 22.0521" stroke="black" stroke-width="3" stroke-linecap="round"/>
<path d="M40.465 15.6829C37.4076 16.8288 35.7191 18.5634 33.9643 20.4148C33.7437 20.6475 33.0865 21.4673 32.7204 21.5455" stroke="black" stroke-width="3" stroke-linecap="round"/>
<path d="M45 17.7653C46.8272 18.1136 50.0938 18.7074 50.8809 17.2344C51.64 15.8136 50.0268 14.8679 47.7064 15.0151C46.5897 15.0859 46.1314 15.7559 45.8851 16.3583C45.3904 17.5681 45.8282 18.8095 46.7957 19.8837C47.6029 20.7798 48.696 21.2873 50.3958 21.0996C51.3743 20.9915 52.2993 20.7539 52.6596 20.1545" stroke="black" stroke-width="3" stroke-linecap="round"/>
<path d="M55 6C55.1308 8.62159 55.4591 11.2341 55.7407 13.8469C55.9375 15.6723 55.694 17.6043 56.1429 19.4033C56.2221 19.7207 56.3012 20.9339 56.7778 20.9557C58.8406 21.0502 60.9335 20.9642 63 20.9642" stroke="black" stroke-width="3" stroke-linecap="round"/>
<path d="M67.0013 6.93054C66.5229 8.8207 66.6949 10.7998 66.6949 12.7071C66.6949 14.3636 66.6949 16.0201 66.6949 17.6766C66.6949 18.9992 66.429 20.4365 66.8481 21.7436" stroke="black" stroke-width="3" stroke-linecap="round"/>
<path d="M66.8481 7.02607C67.6026 9.56792 68.9161 12.1323 70.2183 14.5812C70.7552 15.5909 71.3379 16.5959 72.0821 17.5545C72.1319 17.6185 72.3839 18.033 72.5502 18.0907C72.9101 18.2154 72.6862 17.5828 72.7034 17.3262C72.8126 15.6977 72.9226 14.0694 73.0524 12.4416C73.2064 10.5095 73.2634 8.57496 73.4353 6.6438" stroke="black" stroke-width="3" stroke-linecap="round"/>
<path d="M70.5883 21.5023C74.185 20.7076 77.3834 19.6462 78.6393 17.2336C78.7982 16.9285 80.1317 13.7411 79.2181 13.4852C78.311 13.2311 75.9828 15.5381 78.0436 15.9169C80.3306 16.3372 83.3357 15.7 85.6011 15.3859" stroke="#00AAEC" stroke-width="3" stroke-linecap="round"/>
<path d="M89.9738 9.85674C88.6299 9.91543 86.1334 10.0226 86.4789 11.2688C86.9703 13.0415 90.5799 13.8363 92.0646 15.2211C93.4076 16.4736 91.5496 17.0313 89.8067 17.345C87.2074 17.8127 84.511 18.0666 81.9393 18.573" stroke="black" stroke-width="3" stroke-linecap="round"/>
<path d="M97.4768 5.35327C97.3251 8.6588 97.6442 11.9563 97.4155 15.2662C97.3719 15.8962 97.2897 17.1131 97.2785 17.7553C97.2721 18.126 96.9994 19.4995 97.7102 19.8059C98.9219 20.3282 99.7344 18.5152 99.9779 18.1955" stroke="black" stroke-width="3" stroke-linecap="round"/>
<path d="M94.4246 12.6509C96.3846 12.2022 98.6282 12.1191 100.693 11.9966" stroke="black" stroke-width="3" stroke-linecap="round"/>
</svg>
